<svg width="30" height="31" viewBox="0 0 30 31" fill="none" xmlns="http://www.w3.org/2000/svg">
<path d="M15 25.25C15 25.25 3.75 18.9843 3.75 11.4654C3.75 3.94653 12.5 3.31996 15 9.20276C17.5 3.31996 26.25 3.94653 26.25 11.4654C26.25 18.9843 15 25.25 15 25.25Z" fill="#F9595B"/>
<path d="M15 25.25L14.3918 26.3421C14.7699 26.5527 15.2301 26.5527 15.6082 26.3421L15 25.25ZM15 9.20276L13.8496 9.69165C14.0457 10.1531 14.4986 10.4528 15 10.4528C15.5014 10.4528 15.9543 10.1531 16.1504 9.69165L15 9.20276ZM2.5 11.4654C2.5 15.8071 5.70039 19.5771 8.54338 22.1105C10.0047 23.4127 11.4602 24.466 12.5476 25.1928C13.0925 25.557 13.5481 25.8412 13.8698 26.0357C14.0307 26.133 14.1583 26.208 14.2471 26.2594C14.2915 26.2852 14.3263 26.305 14.3506 26.3188C14.3628 26.3257 14.3723 26.3311 14.3792 26.335C14.3827 26.337 14.3854 26.3385 14.3875 26.3397C14.3886 26.3403 14.3895 26.3408 14.3902 26.3412C14.3905 26.3414 14.3909 26.3416 14.3911 26.3417C14.3915 26.3419 14.3918 26.3421 15 25.25C15.6082 24.158 15.6084 24.1581 15.6086 24.1582C15.6086 24.1582 15.6088 24.1583 15.6088 24.1583C15.6088 24.1583 15.6087 24.1582 15.6084 24.158C15.6077 24.1577 15.6064 24.1569 15.6045 24.1558C15.6005 24.1536 15.594 24.1499 15.5849 24.1448C15.5666 24.1344 15.5382 24.1182 15.5002 24.0961C15.4242 24.0521 15.3101 23.9851 15.1634 23.8964C14.8699 23.7189 14.4465 23.4549 13.9368 23.1142C12.9148 22.4312 11.5578 21.4482 10.2066 20.2441C7.42461 17.765 5 14.6427 5 11.4654H2.5ZM16.1504 8.71386C14.6739 5.23943 11.3085 3.63073 8.25878 4.0713C6.72829 4.2924 5.27037 5.03192 4.19869 6.3091C3.1236 7.59035 2.5 9.33643 2.5 11.4654H5C5 9.83497 5.47015 8.68314 6.11381 7.91606C6.76088 7.14491 7.64671 6.68567 8.61622 6.54561C10.5665 6.26387 12.8261 7.28329 13.8496 9.69165L16.1504 8.71386ZM25 11.4654C25 14.6427 22.5754 17.765 19.7934 20.2441C18.4422 21.4482 17.0852 22.4312 16.0632 23.1142C15.5535 23.4549 15.1301 23.7189 14.8366 23.8964C14.6899 23.9851 14.5758 24.0521 14.4998 24.0961C14.4618 24.1182 14.4334 24.1344 14.4151 24.1448C14.406 24.1499 14.3995 24.1536 14.3955 24.1558C14.3936 24.1569 14.3923 24.1577 14.3916 24.158C14.3913 24.1582 14.3912 24.1583 14.3912 24.1583C14.3912 24.1583 14.3914 24.1582 14.3914 24.1582C14.3916 24.1581 14.3918 24.158 15 25.25C15.6082 26.3421 15.6085 26.3419 15.6089 26.3417C15.6091 26.3416 15.6095 26.3414 15.6098 26.3412C15.6105 26.3408 15.6114 26.3403 15.6125 26.3397C15.6146 26.3385 15.6173 26.337 15.6208 26.335C15.6277 26.3311 15.6372 26.3257 15.6494 26.3188C15.6737 26.305 15.7085 26.2852 15.7529 26.2594C15.8417 26.208 15.9693 26.133 16.1302 26.0357C16.4519 25.8412 16.9075 25.557 17.4524 25.1928C18.5398 24.466 19.9953 23.4127 21.4566 22.1105C24.2996 19.5771 27.5 15.8071 27.5 11.4654H25ZM16.1504 9.69165C17.1739 7.28329 19.4335 6.26387 21.3838 6.54561C22.3533 6.68567 23.2391 7.14491 23.8862 7.91606C24.5298 8.68314 25 9.83497 25 11.4654H27.5C27.5 9.33643 26.8764 7.59035 25.8013 6.3091C24.7296 5.03192 23.2717 4.2924 21.7412 4.0713C18.6915 3.63073 15.3261 5.23943 13.8496 8.71386L16.1504 9.69165Z" fill="#F9595B"/>
</svg>
