<svg width="36" height="36" viewBox="0 0 36 36" fill="none" xmlns="http://www.w3.org/2000/svg">
<path d="M17.3725 0.598538C17.7238 0.263503 18.2762 0.263502 18.6275 0.598538L20.7093 2.58438C20.9579 2.8215 21.3189 2.89824 21.6425 2.78272L24.3521 1.81534C24.8092 1.65213 25.3139 1.87684 25.4985 2.32577L26.5927 4.98669C26.7233 5.30442 27.0219 5.52137 27.3645 5.54744L30.2333 5.76577C30.7173 5.8026 31.0869 6.21318 31.073 6.69838L30.9903 9.57428C30.9804 9.91768 31.1649 10.2373 31.4673 10.4005L33.9992 11.7668C34.4264 11.9973 34.5971 12.5227 34.387 12.9603L33.1417 15.5539C32.993 15.8636 33.0316 16.2307 33.2414 16.5027L34.9988 18.7807C35.2953 19.165 35.2375 19.7145 34.8676 20.0288L32.675 21.8917C32.4132 22.1141 32.2992 22.4651 32.3802 22.799L33.0591 25.5948C33.1736 26.0665 32.8974 26.545 32.4316 26.6816L29.6709 27.4917C29.3412 27.5884 29.0943 27.8627 29.0325 28.2006L28.5155 31.0309C28.4283 31.5084 27.9813 31.8331 27.5003 31.7685L24.6488 31.3856C24.3083 31.3399 23.9711 31.49 23.7772 31.7736L22.1538 34.1489C21.8799 34.5497 21.3395 34.6645 20.9262 34.4099L18.477 32.9002C18.1845 32.72 17.8155 32.72 17.523 32.9002L15.0738 34.4099C14.6605 34.6645 14.1201 34.5497 13.8462 34.1489L12.2228 31.7736C12.0289 31.49 11.6917 31.3399 11.3512 31.3856L8.49974 31.7685C8.01865 31.8331 7.57168 31.5084 7.48446 31.0309L6.96745 28.2006C6.90572 27.8627 6.65875 27.5884 6.3291 27.4917L3.56839 26.6816C3.10262 26.545 2.82638 26.0665 2.94091 25.5948L3.61977 22.799C3.70084 22.4651 3.58678 22.1141 3.32497 21.8917L1.1324 20.0288C0.762486 19.7145 0.704735 19.165 1.00122 18.7807L2.75857 16.5027C2.96841 16.2307 3.00699 15.8636 2.85829 15.5539L1.61297 12.9603C1.40287 12.5227 1.5736 11.9973 2.00077 11.7668L4.53275 10.4005C4.83508 10.2373 5.01962 9.91768 5.00975 9.57428L4.92701 6.69838C4.91305 6.21318 5.28274 5.8026 5.76674 5.76577L8.63553 5.54744C8.97809 5.52137 9.27668 5.30442 9.40733 4.98669L10.5015 2.32577C10.6861 1.87684 11.1908 1.65213 11.6479 1.81534L14.3575 2.78272C14.6811 2.89824 15.0421 2.8215 15.2907 2.58438L17.3725 0.598538Z" fill="url(#paint0_linear_2_95)"/>
<path d="M18.4079 0.828772L18.6275 0.598538L18.4079 0.828773L20.4897 2.81461C20.8253 3.13473 21.3127 3.23832 21.7495 3.08238L24.459 2.11499C24.7562 2.00891 25.0843 2.15497 25.2042 2.44677L26.2984 5.1077C26.4748 5.53663 26.8779 5.8295 27.3403 5.8647L30.2091 6.08303C30.5237 6.10697 30.764 6.37385 30.7549 6.68923L30.6722 9.56513C30.6589 10.0287 30.908 10.4602 31.3162 10.6805L33.8481 12.0468C34.1258 12.1966 34.2368 12.5382 34.1002 12.8226L32.8549 15.4162C32.6541 15.8343 32.7062 16.3298 32.9895 16.697L34.7468 18.9751C34.9396 19.2249 34.902 19.582 34.6616 19.7863L32.469 21.6492C32.1156 21.9495 31.9616 22.4234 32.071 22.874L32.7499 25.6699C32.8243 25.9765 32.6448 26.2875 32.342 26.3763L29.5813 27.1863C29.1363 27.3169 28.8029 27.6872 28.7195 28.1434L28.2025 30.9737C28.1458 31.2841 27.8553 31.4952 27.5426 31.4532L24.6911 31.0703C24.2314 31.0085 23.7763 31.2112 23.5146 31.5941L21.8911 33.9694C21.713 34.2299 21.3618 34.3045 21.0932 34.139L18.6439 32.6294C18.2491 32.386 17.7509 32.386 17.3561 32.6294L14.9068 34.139C14.6382 34.3045 14.287 34.2299 14.1089 33.9694L12.4854 31.5941C12.2237 31.2112 11.7685 31.0085 11.3089 31.0703L8.45739 31.4532C8.14469 31.4952 7.85416 31.2841 7.79746 30.9737L7.28045 28.1434C7.19711 27.6872 6.86371 27.3169 6.41868 27.1863L3.65797 26.3763C3.35522 26.2875 3.17567 25.9765 3.25011 25.6699L3.92897 22.874C4.0384 22.4234 3.88443 21.9495 3.53099 21.6492L1.33842 19.7863C1.09797 19.582 1.06044 19.2249 1.25315 18.9751L3.0105 16.697C3.29378 16.3298 3.34586 15.8343 3.14512 15.4162L1.8998 12.8226C1.76324 12.5382 1.87421 12.1966 2.15187 12.0468L4.68385 10.6805C5.092 10.4602 5.34113 10.0287 5.3278 9.56513L5.24506 6.68923C5.23599 6.37385 5.47628 6.10697 5.79088 6.08303L8.65968 5.8647C9.12213 5.8295 9.52523 5.53663 9.70161 5.1077L10.7958 2.44677C10.9157 2.15497 11.2438 2.00891 11.541 2.11499L14.2505 3.08238C14.6873 3.23832 15.1747 3.13473 15.5103 2.81461L17.5921 0.828773C17.8204 0.611 18.1796 0.611 18.4079 0.828772Z" stroke="black" stroke-opacity="0.1" stroke-width="0.636364"/>
<path d="M10.5215 18.1238C10.1802 17.7556 9.60506 17.7337 9.23682 18.075C8.86858 18.4163 8.84674 18.9915 9.18804 19.3597L10.5215 18.1238ZM26.6781 11.9669C27.0192 11.5986 26.9971 11.0234 26.6287 10.6822C26.2603 10.3411 25.6851 10.3632 25.344 10.7316L26.6781 11.9669ZM14.1787 23.407L14.8455 22.7891L14.1787 23.407ZM14.8456 23.4069L14.1786 22.7892L14.8456 23.4069ZM9.18804 19.3597L13.512 24.025L14.8455 22.7891L10.5215 18.1238L9.18804 19.3597ZM15.5126 24.0246L26.6781 11.9669L25.344 10.7316L14.1786 22.7892L15.5126 24.0246ZM13.512 24.025C14.0518 24.6074 14.9731 24.6072 15.5126 24.0246L14.1786 22.7892C14.3584 22.595 14.6655 22.5949 14.8455 22.7891L13.512 24.025Z" fill="white"/>
<defs>
<linearGradient id="paint0_linear_2_95" x1="18" y1="0" x2="18" y2="35.25" gradientUnits="userSpaceOnUse">
<stop stop-color="#426BB6"/>
<stop offset="1" stop-color="#26458C"/>
</linearGradient>
</defs>
</svg>
